<mxfile host="app.diagrams.net" modified="2021-09-15T01:49:19.982Z" agent="5.0 (Windows NT 10.0; Win64; x64) AppleWebKit/537.36 (KHTML, like Gecko) Chrome/93.0.4577.63 Safari/537.36" etag="ChQ8hZvuEhjiDMc1BItc" version="14.6.11" type="github">
  <diagram id="gFrg3TOSpo_yUsh01OMg" name="Page-1">
    <mxGraphModel dx="1422" dy="826" grid="1" gridSize="10" guides="1" tooltips="1" connect="1" arrows="1" fold="1" page="1" pageScale="1" pageWidth="827" pageHeight="1169" math="0" shadow="0">
      <root>
        <mxCell id="0" />
        <mxCell id="1" parent="0" />
        <mxCell id="CDpCMwXp8F2oTA8Pl8b6-3" value="" style="edgeStyle=orthogonalEdgeStyle;rounded=0;orthogonalLoop=1;jettySize=auto;html=1;" edge="1" parent="1" source="CDpCMwXp8F2oTA8Pl8b6-1" target="CDpCMwXp8F2oTA8Pl8b6-2">
          <mxGeometry relative="1" as="geometry" />
        </mxCell>
        <mxCell id="CDpCMwXp8F2oTA8Pl8b6-1" value="高维数据" style="rounded=1;whiteSpace=wrap;html=1;" vertex="1" parent="1">
          <mxGeometry x="380" y="140" width="120" height="60" as="geometry" />
        </mxCell>
        <mxCell id="CDpCMwXp8F2oTA8Pl8b6-6" value="" style="edgeStyle=orthogonalEdgeStyle;rounded=0;orthogonalLoop=1;jettySize=auto;html=1;" edge="1" parent="1" source="CDpCMwXp8F2oTA8Pl8b6-2" target="CDpCMwXp8F2oTA8Pl8b6-4">
          <mxGeometry relative="1" as="geometry" />
        </mxCell>
        <mxCell id="CDpCMwXp8F2oTA8Pl8b6-2" value="Birtch聚类" style="whiteSpace=wrap;html=1;rounded=1;" vertex="1" parent="1">
          <mxGeometry x="210" y="290" width="120" height="60" as="geometry" />
        </mxCell>
        <mxCell id="CDpCMwXp8F2oTA8Pl8b6-8" value="" style="edgeStyle=orthogonalEdgeStyle;rounded=0;orthogonalLoop=1;jettySize=auto;html=1;" edge="1" parent="1" source="CDpCMwXp8F2oTA8Pl8b6-4" target="CDpCMwXp8F2oTA8Pl8b6-5">
          <mxGeometry relative="1" as="geometry" />
        </mxCell>
        <mxCell id="CDpCMwXp8F2oTA8Pl8b6-4" value="UMAP" style="whiteSpace=wrap;html=1;rounded=1;" vertex="1" parent="1">
          <mxGeometry x="380" y="290" width="120" height="60" as="geometry" />
        </mxCell>
        <mxCell id="CDpCMwXp8F2oTA8Pl8b6-10" value="" style="edgeStyle=orthogonalEdgeStyle;rounded=0;orthogonalLoop=1;jettySize=auto;html=1;" edge="1" parent="1" source="CDpCMwXp8F2oTA8Pl8b6-5" target="CDpCMwXp8F2oTA8Pl8b6-9">
          <mxGeometry relative="1" as="geometry" />
        </mxCell>
        <mxCell id="CDpCMwXp8F2oTA8Pl8b6-5" value="低维空间" style="whiteSpace=wrap;html=1;rounded=1;" vertex="1" parent="1">
          <mxGeometry x="380" y="420" width="120" height="60" as="geometry" />
        </mxCell>
        <mxCell id="CDpCMwXp8F2oTA8Pl8b6-7" style="edgeStyle=orthogonalEdgeStyle;rounded=0;orthogonalLoop=1;jettySize=auto;html=1;exitX=0.5;exitY=1;exitDx=0;exitDy=0;" edge="1" parent="1" source="CDpCMwXp8F2oTA8Pl8b6-4" target="CDpCMwXp8F2oTA8Pl8b6-4">
          <mxGeometry relative="1" as="geometry" />
        </mxCell>
        <mxCell id="CDpCMwXp8F2oTA8Pl8b6-9" value="Alpha Shape=》Contour" style="whiteSpace=wrap;html=1;rounded=1;" vertex="1" parent="1">
          <mxGeometry x="380" y="510" width="120" height="60" as="geometry" />
        </mxCell>
        <mxCell id="CDpCMwXp8F2oTA8Pl8b6-13" value="" style="edgeStyle=orthogonalEdgeStyle;rounded=0;orthogonalLoop=1;jettySize=auto;html=1;" edge="1" parent="1" source="CDpCMwXp8F2oTA8Pl8b6-11" target="CDpCMwXp8F2oTA8Pl8b6-9">
          <mxGeometry relative="1" as="geometry" />
        </mxCell>
        <mxCell id="CDpCMwXp8F2oTA8Pl8b6-11" value="柴金曲线算法" style="whiteSpace=wrap;html=1;rounded=1;" vertex="1" parent="1">
          <mxGeometry x="210" y="510" width="120" height="60" as="geometry" />
        </mxCell>
        <mxCell id="CDpCMwXp8F2oTA8Pl8b6-14" value="" style="edgeStyle=orthogonalEdgeStyle;rounded=0;orthogonalLoop=1;jettySize=auto;html=1;" edge="1" parent="1" source="CDpCMwXp8F2oTA8Pl8b6-12" target="CDpCMwXp8F2oTA8Pl8b6-9">
          <mxGeometry relative="1" as="geometry" />
        </mxCell>
        <mxCell id="CDpCMwXp8F2oTA8Pl8b6-12" value="add margin" style="whiteSpace=wrap;html=1;rounded=1;" vertex="1" parent="1">
          <mxGeometry x="550" y="510" width="120" height="60" as="geometry" />
        </mxCell>
        <mxCell id="CDpCMwXp8F2oTA8Pl8b6-16" value="" style="edgeStyle=orthogonalEdgeStyle;rounded=0;orthogonalLoop=1;jettySize=auto;html=1;" edge="1" parent="1" source="CDpCMwXp8F2oTA8Pl8b6-15" target="CDpCMwXp8F2oTA8Pl8b6-9">
          <mxGeometry relative="1" as="geometry" />
        </mxCell>
        <mxCell id="CDpCMwXp8F2oTA8Pl8b6-15" value="Outier Filter" style="whiteSpace=wrap;html=1;rounded=1;" vertex="1" parent="1">
          <mxGeometry x="380" y="610" width="120" height="60" as="geometry" />
        </mxCell>
      </root>
    </mxGraphModel>
  </diagram>
</mxfile>
